<svg width="331" height="250" viewBox="0 0 331 250" fill="none" xmlns="http://www.w3.org/2000/svg">
<path d="M285.017 143.361C273.469 143.422 263.433 146.216 255.03 150.346C251.946 144.211 248.863 138.745 248.319 134.736C247.714 130.059 246.989 127.204 247.714 121.616C248.44 116.028 251.704 108.071 251.644 107.464C251.583 106.857 250.918 104.002 244.268 103.941C237.617 103.88 231.874 105.217 231.209 106.978C230.544 108.739 229.274 112.748 228.428 116.879C227.279 122.952 215.127 144.636 208.174 155.995C205.937 151.561 204.003 147.673 203.579 144.576C202.975 139.899 202.249 137.044 202.975 131.456C203.7 125.868 206.965 117.911 206.905 117.304C206.844 116.696 206.179 113.842 199.529 113.781C192.878 113.72 187.135 115.056 186.47 116.818C185.805 118.579 185.079 122.709 183.689 126.718C182.298 130.727 166.156 166.928 161.924 176.282C159.747 181.08 157.873 184.907 156.543 187.518C156.543 187.518 156.482 187.701 156.301 188.004C155.152 190.252 154.487 191.466 154.487 191.466C154.487 191.466 154.487 191.466 154.487 191.527C153.58 193.167 152.613 194.686 152.129 194.686C151.767 194.686 151.101 190.312 152.25 184.36C154.669 171.787 160.412 152.229 160.352 151.561C160.352 151.196 161.44 147.795 156.603 146.033C151.887 144.272 150.195 147.187 149.771 147.187C149.348 147.187 149.046 148.22 149.046 148.22C149.046 148.22 154.306 126.232 139.01 126.232C129.457 126.232 116.277 136.74 109.748 146.216C105.637 148.463 96.8703 153.261 87.4992 158.424C83.9322 160.429 80.2442 162.433 76.7981 164.316C76.5562 164.073 76.3144 163.769 76.0726 163.526C57.5723 143.665 23.3528 129.634 24.8038 102.969C25.3479 93.2509 28.6731 67.7404 90.5221 36.7633C141.428 11.5565 181.935 18.5415 188.948 34.03C198.985 56.1392 167.244 97.199 114.645 103.151C94.5728 105.399 84.0531 97.6241 81.3929 94.7086C78.6118 91.6717 78.1886 91.4895 77.1608 92.0969C75.468 93.008 76.5562 95.7412 77.1608 97.3204C78.7327 101.451 85.2018 108.739 96.1448 112.323C105.818 115.482 129.336 117.243 157.812 106.188C189.674 93.7976 214.583 59.3584 207.267 30.5072C199.952 1.23081 151.585 -8.42675 105.818 7.91213C78.6118 17.6304 49.1081 32.9367 27.8872 52.8592C2.67602 76.5476 -1.31423 97.1382 0.318144 105.763C6.18261 136.376 48.2012 156.298 65.0087 171.058C64.1623 171.544 63.3763 171.969 62.7112 172.334C54.3075 176.525 22.2646 193.349 14.284 211.146C5.21528 231.311 15.735 245.767 22.6878 247.711C44.2714 253.724 66.4597 242.913 78.37 225.055C90.2803 207.198 88.8293 183.995 83.3276 173.366C83.2671 173.245 83.2066 173.123 83.0857 173.002C85.2622 171.726 87.4992 170.39 89.6757 169.114C93.9683 166.563 98.2003 164.194 101.828 162.251C99.7723 167.9 98.2608 174.642 97.5353 184.36C96.6284 195.779 101.284 210.599 107.39 216.43C110.111 218.981 113.315 219.042 115.371 219.042C122.505 219.042 125.709 213.09 129.276 206.044C133.629 197.419 137.559 187.397 137.559 187.397C137.559 187.397 132.662 214.487 145.963 214.487C150.799 214.487 155.696 208.17 157.873 204.951C157.873 205.011 157.873 205.011 157.873 205.011C157.873 205.011 157.994 204.829 158.236 204.404C158.719 203.614 159.022 203.128 159.022 203.128C159.022 203.128 159.022 203.068 159.022 203.007C160.956 199.605 165.309 191.892 171.778 179.076C180.122 162.554 188.163 141.903 188.163 141.903C188.163 141.903 188.888 146.944 191.367 155.327C192.818 160.246 195.841 165.652 198.259 170.876C196.324 173.609 195.115 175.128 195.115 175.128C195.115 175.128 195.115 175.128 195.176 175.188C193.604 177.253 191.911 179.501 190.037 181.687C183.447 189.583 175.587 198.634 174.499 201.245C173.229 204.343 173.532 206.591 175.95 208.413C177.703 209.749 180.847 209.931 184.051 209.749C189.976 209.324 194.148 207.866 196.203 206.955C199.408 205.801 203.156 204.039 206.663 201.428C213.132 196.629 217.062 189.766 216.699 180.716C216.518 175.735 214.885 170.754 212.89 166.077C213.495 165.227 214.039 164.377 214.643 163.526C224.861 148.524 232.781 132.063 232.781 132.063C232.781 132.063 233.506 137.105 235.985 145.487C237.194 149.738 239.673 154.355 241.85 158.849C232.237 166.685 226.312 175.796 224.196 181.748C220.387 192.803 223.349 197.783 228.972 198.937C231.511 199.484 235.139 198.269 237.799 197.115C241.185 196.022 245.175 194.139 248.984 191.345C255.453 186.547 261.68 179.865 261.317 170.815C261.136 166.685 260.048 162.615 258.536 158.667C266.698 155.266 277.218 153.383 290.64 154.962C319.418 158.363 325.101 176.403 324.013 183.995C322.924 191.588 316.879 195.718 314.883 196.994C312.888 198.269 312.223 198.694 312.405 199.605C312.646 200.942 313.614 200.881 315.307 200.638C317.664 200.213 330.421 194.503 330.965 180.533C331.872 162.676 314.944 143.179 285.017 143.361ZM63.0135 218.556C53.4611 229.003 40.1603 232.951 34.4167 229.611C28.2499 226.027 30.6683 210.599 42.3972 199.545C49.5313 192.803 58.721 186.547 64.8273 182.72C66.2178 181.87 68.2734 180.655 70.7522 179.136C71.1754 178.893 71.4173 178.772 71.4173 178.772C71.9009 178.468 72.3846 178.164 72.8683 177.861C77.1608 193.653 73.0496 207.562 63.0135 218.556ZM132.541 171.058C129.216 179.197 122.263 200.031 118.031 198.877C114.403 197.905 112.166 182.113 117.305 166.503C119.905 158.667 125.407 149.313 128.611 145.669C133.81 139.838 139.554 137.894 140.944 140.263C142.698 143.361 134.596 165.956 132.541 171.058ZM189.916 198.634C188.525 199.363 187.195 199.848 186.591 199.484C186.167 199.241 187.195 198.269 187.195 198.269C187.195 198.269 194.39 190.495 197.231 186.972C198.864 184.907 200.798 182.477 202.854 179.744C202.854 179.987 202.854 180.29 202.854 180.533C202.854 189.826 193.906 196.083 189.916 198.634ZM234.171 188.49C233.144 187.761 233.325 185.332 236.771 177.739C238.101 174.763 241.245 169.782 246.626 164.984C247.23 166.928 247.654 168.811 247.593 170.572C247.533 182.295 239.189 186.668 234.171 188.49Z" fill="#CC6699"/>
</svg>
