<svg width="73" height="67" viewBox="0 0 73 67" fill="none" xmlns="http://www.w3.org/2000/svg">
<path d="M62.8587 31.6174C60.312 31.6307 58.0986 32.2469 56.2452 33.1579C55.5652 31.8049 54.8851 30.5993 54.7651 29.7152C54.6318 28.6837 54.4718 28.0541 54.6318 26.8217C54.7918 25.5893 55.5118 23.8345 55.4985 23.7005C55.4852 23.5665 55.3385 22.9369 53.8718 22.9236C52.4051 22.9102 51.1384 23.2049 50.9917 23.5933C50.845 23.9818 50.565 24.8659 50.3783 25.7768C50.125 27.1164 47.4449 31.8987 45.9115 34.4036C45.4182 33.4258 44.9915 32.5684 44.8982 31.8853C44.7648 30.8538 44.6048 30.2242 44.7648 28.9918C44.9248 27.7594 45.6449 26.0046 45.6315 25.8706C45.6182 25.7366 45.4715 25.107 44.0048 25.0937C42.5381 25.0803 41.2714 25.375 41.1247 25.7634C40.9781 26.1519 40.8181 27.0628 40.5114 27.9469C40.2047 28.831 36.6446 36.8149 35.7112 38.8778C35.2312 39.9361 34.8179 40.78 34.5245 41.356C34.5245 41.356 34.5112 41.3962 34.4712 41.4632C34.2179 41.9588 34.0712 42.2267 34.0712 42.2267C34.0712 42.2267 34.0712 42.2267 34.0712 42.2401C33.8712 42.6018 33.6578 42.9367 33.5512 42.9367C33.4712 42.9367 33.3245 41.9722 33.5778 40.6594C34.1112 37.8865 35.3779 33.5731 35.3646 33.4258C35.3646 33.3454 35.6046 32.5952 34.5379 32.2068C33.4978 31.8183 33.1245 32.4613 33.0312 32.4613C32.9378 32.4613 32.8711 32.689 32.8711 32.689C32.8711 32.689 34.0312 27.8398 30.6577 27.8398C28.551 27.8398 25.6443 30.1572 24.2042 32.2469C23.2975 32.7426 21.3641 33.8008 19.2974 34.9395C18.5107 35.3815 17.6974 35.8236 16.9373 36.2389C16.884 36.1853 16.8307 36.1183 16.7773 36.0647C12.6972 31.6843 5.15032 28.5899 5.47033 22.7092C5.59033 20.5659 6.32368 14.9397 19.9641 8.10792C31.1911 2.54871 40.1247 4.08922 41.6714 7.50512C43.8848 12.3811 36.8846 21.4366 25.2843 22.7494C20.8575 23.245 18.5374 21.5304 17.9507 20.8874C17.3373 20.2176 17.244 20.1774 17.0173 20.3114C16.644 20.5123 16.884 21.1151 17.0173 21.4634C17.364 22.3743 18.7907 23.9818 21.2041 24.7722C23.3375 25.4687 28.5244 25.8572 34.8045 23.4192C41.8314 20.6865 47.3249 13.0911 45.7115 6.72817C44.0981 0.271447 33.4312 -1.85847 23.3375 1.74497C17.3373 3.88828 10.8305 7.26399 6.15035 11.6578C0.59018 16.8821 -0.289846 21.4232 0.0701647 23.3254C1.36354 30.0768 10.6305 34.4706 14.3373 37.7258C14.1506 37.8329 13.9772 37.9267 13.8306 38.0071C11.9772 38.9314 4.91031 42.642 3.15026 46.5669C1.1502 51.0143 3.47027 54.2025 5.00365 54.6311C9.76379 55.9573 14.6573 53.5729 17.284 49.6345C19.9108 45.6962 19.5907 40.5791 18.3774 38.2348C18.364 38.208 18.3507 38.1812 18.324 38.1544C18.8041 37.8731 19.2974 37.5784 19.7774 37.2971C20.7241 36.7345 21.6575 36.2121 22.4575 35.7834C22.0042 37.0292 21.6708 38.5161 21.5108 40.6594C21.3108 43.1778 22.3375 46.4464 23.6842 47.7324C24.2842 48.295 24.9909 48.3084 25.4443 48.3084C27.0176 48.3084 27.7243 46.9956 28.511 45.4417C29.471 43.5395 30.3377 41.3292 30.3377 41.3292C30.3377 41.3292 29.2577 47.3037 32.1911 47.3037C33.2578 47.3037 34.3379 45.9105 34.8179 45.2006C34.8179 45.214 34.8179 45.214 34.8179 45.214C34.8179 45.214 34.8445 45.1738 34.8979 45.08C35.0045 44.9059 35.0712 44.7987 35.0712 44.7987C35.0712 44.7987 35.0712 44.7853 35.0712 44.7719C35.4979 44.0218 36.4579 42.3205 37.8846 39.494C39.7247 35.8504 41.4981 31.2959 41.4981 31.2959C41.4981 31.2959 41.6581 32.4077 42.2048 34.2563C42.5248 35.3414 43.1915 36.5336 43.7248 37.6856C43.2981 38.2884 43.0315 38.6233 43.0315 38.6233C43.0315 38.6233 43.0315 38.6233 43.0448 38.6367C42.6981 39.0921 42.3248 39.5878 41.9114 40.07C40.458 41.8115 38.7247 43.8074 38.4846 44.3834C38.2046 45.0666 38.2713 45.5623 38.8047 45.9641C39.1913 46.2588 39.8847 46.299 40.5914 46.2588C41.8981 46.1651 42.8181 45.8436 43.2715 45.6426C43.9781 45.3881 44.8048 44.9996 45.5782 44.4236C47.0049 43.3654 47.8716 41.8517 47.7916 39.8557C47.7516 38.7572 47.3916 37.6588 46.9516 36.6273C47.0849 36.4398 47.2049 36.2523 47.3382 36.0647C49.5916 32.756 51.3384 29.1258 51.3384 29.1258C51.3384 29.1258 51.4984 30.2376 52.0451 32.0862C52.3117 33.0239 52.8584 34.042 53.3384 35.0332C51.2184 36.7613 49.9117 38.7706 49.445 40.0834C48.605 42.5214 49.2583 43.6199 50.4983 43.8744C51.0584 43.995 51.8584 43.727 52.4451 43.4725C53.1918 43.2314 54.0718 42.8161 54.9118 42.1999C56.3385 41.1417 57.7119 39.6682 57.6319 37.6722C57.5919 36.7613 57.3519 35.8638 57.0185 34.9931C58.8186 34.2429 61.1387 33.8276 64.0988 34.1759C70.4456 34.9261 71.699 38.9046 71.459 40.5791C71.219 42.2535 69.8856 43.1644 69.4456 43.4457C69.0056 43.727 68.8589 43.8208 68.8989 44.0218C68.9522 44.3165 69.1656 44.3031 69.5389 44.2495C70.0589 44.1557 72.8724 42.8965 72.9924 39.8155C73.1924 35.8772 69.4589 31.5772 62.8587 31.6174ZM13.8972 48.2012C11.7905 50.5053 8.85709 51.376 7.59039 50.6392C6.23035 49.8489 6.7637 46.4464 9.35044 44.0084C10.9238 42.5214 12.9506 41.1417 14.2973 40.2978C14.6039 40.1102 15.0573 39.8423 15.604 39.5074C15.6973 39.4538 15.7506 39.427 15.7506 39.427C15.8573 39.3601 15.964 39.2931 16.0706 39.2261C17.0173 42.709 16.1106 45.7766 13.8972 48.2012ZM29.231 37.7258C28.4977 39.5208 26.9643 44.1155 26.0309 43.861C25.2309 43.6467 24.7376 40.1638 25.8709 36.7211C26.4443 34.9931 27.6577 32.9301 28.3643 32.1264C29.511 30.8404 30.7778 30.4117 31.0844 30.9342C31.4711 31.6173 29.6844 36.6005 29.231 37.7258ZM41.8848 43.8074C41.5781 43.9682 41.2847 44.0753 41.1514 43.995C41.0581 43.9414 41.2847 43.727 41.2847 43.727C41.2847 43.727 42.8714 42.0124 43.4981 41.2354C43.8581 40.78 44.2848 40.2442 44.7382 39.6414C44.7382 39.6949 44.7382 39.7619 44.7382 39.8155C44.7382 41.865 42.7648 43.2448 41.8848 43.8074ZM51.645 41.5703C51.4184 41.4096 51.4584 40.8738 52.2184 39.1993C52.5117 38.5429 53.2051 37.4445 54.3918 36.3862C54.5251 36.8149 54.6185 37.2301 54.6051 37.6186C54.5918 40.204 52.7517 41.1685 51.645 41.5703Z" fill="#CC6699"/>
<path d="M42.1211 55.4688V64H40.9902V55.4688H42.1211ZM47.2715 55.4688L43.7266 59.4473L41.7344 61.5156L41.5469 60.3086L43.0469 58.6562L45.9121 55.4688H47.2715ZM46.1816 64L43.0234 59.8398L43.6973 58.9434L47.5293 64H46.1816ZM48.5254 55.4688H51.3496C51.9902 55.4688 52.5312 55.5664 52.9727 55.7617C53.418 55.957 53.7559 56.2461 53.9863 56.6289C54.2207 57.0078 54.3379 57.4746 54.3379 58.0293C54.3379 58.4199 54.2578 58.7773 54.0977 59.1016C53.9414 59.4219 53.7148 59.6953 53.418 59.9219C53.125 60.1445 52.7734 60.3105 52.3633 60.4199L52.0469 60.543H49.3926L49.3809 59.623H51.3848C51.791 59.623 52.1289 59.5527 52.3984 59.4121C52.668 59.2676 52.8711 59.0742 53.0078 58.832C53.1445 58.5898 53.2129 58.3223 53.2129 58.0293C53.2129 57.7012 53.1484 57.4141 53.0195 57.168C52.8906 56.9219 52.6875 56.7324 52.4102 56.5996C52.1367 56.4629 51.7832 56.3945 51.3496 56.3945H49.6562V64H48.5254V55.4688ZM53.5117 64L51.4375 60.1328L52.6152 60.127L54.7188 63.9297V64H53.5117Z" fill="white"/>
</svg>
